<svg width="429" height="819" viewBox="0 0 429 819" fill="none" xmlns="http://www.w3.org/2000/svg">
<path opacity="0.79" fill-rule="evenodd" clip-rule="evenodd" d="M189.189 11.5734C183.587 17.1244 180.493 23.5458 179.385 27.0056C178.506 29.7497 178.227 34.5211 178.245 39.4175C178.264 44.2973 178.578 49.2454 178.862 52.3089C178.878 52.4854 178.763 52.6476 178.591 52.6909C178.42 52.7342 178.242 52.6458 178.173 52.4826C177.976 52.0186 177.586 51.3367 177.067 50.8127C176.544 50.2841 175.954 49.9756 175.334 50.0884C174.626 50.2171 173.946 50.5036 173.385 51.0192C172.826 51.5332 172.363 52.2941 172.119 53.4082C171.972 54.0802 171.905 54.8815 171.945 55.8336C172.034 57.9261 172.346 60.447 172.825 62.767C173.306 65.097 173.948 67.1843 174.681 68.4351C175.073 69.1041 175.467 69.9403 175.866 70.7973C175.9 70.8694 175.933 70.9417 175.967 71.0141C176.336 71.8087 176.711 72.6161 177.102 73.3478C177.531 74.1496 177.964 74.8336 178.408 75.2973C178.855 75.7646 179.255 75.9495 179.627 75.9029C180.647 75.7754 181.197 75.4632 181.521 75.1476C181.825 74.8525 181.961 74.5307 182.09 74.2253C182.102 74.1967 182.114 74.1683 182.126 74.14C182.147 74.0914 182.174 74.0355 182.21 73.9853C182.232 73.9537 182.317 73.8338 182.48 73.8052C182.699 73.7669 182.83 73.9145 182.872 73.9759C182.916 74.0397 182.938 74.108 182.95 74.1497C182.997 74.3151 183.024 74.6046 183.051 74.9262C183.059 75.0234 183.067 75.1275 183.076 75.2377C183.129 75.8997 183.199 76.7825 183.351 77.7316C183.419 78.1612 183.488 78.7142 183.566 79.338C183.592 79.5412 183.618 79.752 183.645 79.9684C183.758 80.8546 183.893 81.8479 184.072 82.8505C184.432 84.8729 184.962 86.8713 185.808 88.1051C185.848 88.1641 185.87 88.2338 185.871 88.3053C185.911 92.6897 185.961 100.196 185.948 105.214C185.941 107.699 185.919 109.596 185.869 110.188C185.815 110.839 185.437 111.5 184.888 112.147C184.333 112.801 183.567 113.482 182.664 114.175C180.859 115.561 178.461 117.032 175.989 118.472C171.022 121.364 162.464 125.24 152.298 128.751C147.567 130.385 144.226 130.895 140.987 131.39C140.727 131.429 140.467 131.469 140.208 131.509C136.729 132.047 133.233 132.671 128.058 134.769C127.481 135.003 126.922 135.228 126.378 135.447L126.001 135.599C121.481 137.421 118.107 138.809 114.963 141.047C111.824 143.28 108.896 146.376 105.311 151.633C97.6522 162.863 96.9285 178.047 96.9285 185.958C96.9285 192.297 96.6287 198.324 96.4785 200.548C96.4746 200.606 96.4568 200.662 96.4266 200.712C95.1119 202.865 93.0491 206.392 91.1363 209.973C89.2187 213.562 87.4682 217.175 86.7611 219.511C86.1467 221.54 85.1653 224.325 84.0811 227.403C83.5752 228.839 83.0469 230.338 82.5231 231.854C80.8716 236.632 79.2622 241.579 78.5039 245.285C77.3123 251.107 76.0513 253.326 73.7213 257.427C73.0382 258.629 72.2632 259.993 71.3711 261.657C71.0453 262.265 70.7147 262.876 70.3794 263.495C66.6498 270.383 62.3435 278.336 57.6551 295.212C55.0988 304.413 53.3043 313.438 51.7772 321.372C51.6443 322.062 51.5134 322.745 51.3842 323.418C50.0304 330.476 48.8602 336.576 47.5003 340.989C46.015 345.809 43.4743 353.032 41.2051 359.182C40.0703 362.258 39.0024 365.068 38.1672 367.177C37.7497 368.232 37.3895 369.113 37.1077 369.766C36.967 370.092 36.8446 370.364 36.7437 370.573C36.6476 370.772 36.5583 370.942 36.4838 371.041C36.3498 371.22 36.1532 371.387 35.9336 371.542C35.7102 371.699 35.4437 371.856 35.1528 372.01C34.571 372.318 33.8699 372.624 33.1737 372.902C31.7806 373.457 30.3778 373.91 29.9209 374.047C29.2248 374.256 27.2094 375.08 26.2731 375.473L26.2724 375.473C23.0638 376.811 19.943 378.686 18.7066 379.57C18.1666 379.956 17.6771 380.448 17.159 380.968C17.1026 381.025 17.0459 381.082 16.9887 381.139C16.4172 381.711 15.8052 382.303 15.089 382.733C14.6085 383.021 13.9573 383.367 13.2699 383.733C12.9799 383.887 12.6835 384.044 12.3907 384.202C11.3877 384.744 10.4264 385.292 9.82553 385.765C8.58043 386.744 6.98994 388.25 6.20754 389.294C5.85686 389.762 5.73081 390.11 5.60466 390.459L5.58397 390.516C5.44226 390.906 5.28545 391.301 4.82655 391.76C4.435 392.152 3.88781 392.58 3.32664 393.018L3.18788 393.127C2.5685 393.612 1.93394 394.116 1.41261 394.638C0.966743 395.084 0.626839 396.046 0.740655 397.04C0.851051 398.004 1.38395 398.958 2.63584 399.443C3.94906 399.952 5.53992 400.001 7.07897 399.717C8.61733 399.433 10.0683 398.823 11.0949 398.052C12.141 397.267 12.7716 396.549 13.2905 395.919C13.3542 395.842 13.4169 395.765 13.479 395.689C13.9149 395.154 14.3229 394.653 14.8792 394.268C15.4929 393.842 16.4851 393.336 17.4764 392.937C18.4556 392.543 19.5004 392.225 20.2047 392.225C20.3268 392.225 20.4406 392.287 20.5067 392.39C20.5729 392.493 20.5824 392.622 20.532 392.734C19.6637 394.651 17.6806 399.178 16.6798 401.968C15.573 405.054 13.8307 412.085 12.8823 415.912C12.7598 416.406 12.6505 416.847 12.5575 417.219C11.7492 420.456 10.3139 426.472 9.59718 430.237C8.87604 434.027 7.98438 439.031 7.89611 440.798C7.88435 441.034 7.85684 441.327 7.82546 441.662C7.72914 442.69 7.59629 444.107 7.76997 445.431C7.88397 446.301 8.12649 447.077 8.56581 447.64C8.99286 448.187 9.62796 448.562 10.6067 448.603C12.5617 448.685 13.8534 447.391 14.7036 445.886C15.4875 444.498 15.8453 443.013 15.9676 442.505C15.9776 442.464 15.986 442.429 15.9929 442.401C16.0479 442.181 16.1808 441.443 16.3514 440.485L16.3981 440.222C16.5567 439.331 16.7396 438.302 16.9132 437.386C17.112 436.338 17.3047 435.402 17.4381 435.002C17.5427 434.687 17.7981 433.83 18.1482 432.654C18.6744 430.886 19.4145 428.4 20.1784 425.96C20.6509 424.451 21.1312 422.965 21.5721 421.69C22.3806 419.353 22.9433 417.753 23.3491 416.659C23.7518 415.573 24.0084 414.96 24.205 414.616C24.3346 414.389 24.5328 414.223 24.792 414.203C25.0309 414.184 25.2297 414.297 25.3601 414.411C25.4942 414.529 25.6014 414.685 25.6617 414.844C25.7146 414.984 25.7673 415.229 25.6246 415.443C25.5527 415.552 25.2707 416.068 24.9471 416.805C24.6264 417.535 24.2759 418.458 24.0581 419.373C23.9019 420.03 23.4772 421.6 22.9638 423.498C22.7337 424.349 22.4858 425.265 22.2363 426.195C21.4265 429.211 20.5992 432.368 20.2876 433.927C19.9762 435.485 19.8428 436.62 19.7197 437.74L19.6935 437.979C19.5794 439.022 19.4635 440.082 19.2107 441.474C19.0618 442.294 18.8482 443.258 18.6196 444.29C18.4354 445.121 18.2415 445.997 18.0639 446.876C17.6605 448.872 17.3298 450.933 17.3298 452.739C17.3298 454.569 17.5327 456.03 18.0126 457.022C18.2496 457.512 18.5482 457.875 18.9126 458.117C19.2751 458.357 19.7259 458.494 20.2945 458.494C22.6157 458.494 23.689 456.926 24.0254 456.337C24.3669 455.739 25.4322 453.255 25.8736 451.311C26.0904 450.356 26.3927 448.719 26.6892 447.115L26.7129 446.986C27.0148 445.352 27.3094 443.764 27.4925 443.031C27.5705 442.719 27.7712 441.856 28.0482 440.665C28.4081 439.117 28.8967 437.017 29.4119 434.852C30.3194 431.04 31.3124 427.017 31.8137 425.557C32.0599 424.84 32.2951 424.129 32.5169 423.456L32.5628 423.316C32.7672 422.696 32.9603 422.11 33.1388 421.59C33.3302 421.032 33.5074 420.542 33.6665 420.162C33.746 419.971 33.8233 419.803 33.898 419.664C33.9693 419.531 34.0511 419.4 34.1454 419.306C34.5082 418.942 35.0238 418.964 35.3688 419.137C35.5463 419.226 35.7145 419.37 35.8099 419.568C35.9109 419.779 35.9166 420.025 35.799 420.26L35.7985 420.261C35.7977 420.263 35.7961 420.267 35.7935 420.273C35.7899 420.281 35.7853 420.292 35.7796 420.307C35.7682 420.336 35.7541 420.374 35.7371 420.422C35.7031 420.517 35.66 420.644 35.6086 420.8C35.506 421.113 35.3723 421.538 35.2162 422.048C34.904 423.068 34.5032 424.426 34.0826 425.907C33.2405 428.874 32.3231 432.324 31.877 434.557C31.4707 436.59 31.2307 438.234 31.0131 439.725C30.9912 439.874 30.9696 440.023 30.9481 440.169C30.7121 441.777 30.4853 443.232 30.0758 444.826C30.0227 445.033 29.9611 445.266 29.8938 445.52C29.4432 447.22 28.7372 449.885 28.5929 452.311C28.5099 453.707 28.6171 454.976 29.0333 455.921C29.4375 456.838 30.1329 457.456 31.2981 457.597C32.4438 457.735 33.425 457.213 34.287 456.233C35.1544 455.247 35.8659 453.833 36.444 452.297C37.3583 449.869 37.9079 447.23 38.2354 445.657C38.3225 445.239 38.3939 444.896 38.4523 444.653C38.7138 443.562 39.2869 441.621 39.8477 439.721L39.917 439.487C40.5036 437.5 41.0592 435.608 41.2351 434.772C41.5941 433.065 42.8559 427.649 43.5832 425.556C43.7056 425.204 43.8394 424.79 43.9814 424.351C44.2439 423.539 44.5347 422.64 44.8348 421.878C45.0671 421.288 45.3181 420.745 45.5861 420.36C45.7195 420.169 45.8726 419.994 46.0494 419.877C46.2338 419.755 46.4634 419.684 46.7124 419.752C47.0287 419.839 47.1573 420.118 47.2058 420.343C47.2554 420.573 47.2495 420.853 47.2179 421.143C47.154 421.73 46.9697 422.483 46.7497 423.245C46.5284 424.012 46.2651 424.808 46.036 425.487C45.9887 425.628 45.9431 425.762 45.8996 425.891C45.7304 426.39 45.5949 426.79 45.5259 427.032C45.3523 427.64 45.1313 428.832 44.9049 430.066L44.8794 430.206C44.6646 431.378 44.4472 432.564 44.2698 433.23C44.2124 433.445 44.1248 433.76 44.0166 434.148C43.7492 435.108 43.3564 436.518 42.9856 437.991C42.5498 439.722 42.154 441.505 42.0342 442.704C41.899 444.057 41.8663 445.26 42.204 446.161C42.3687 446.601 42.6194 446.961 42.9891 447.234C43.3611 447.509 43.8759 447.712 44.5935 447.796C45.1875 447.866 45.7715 447.556 46.3518 446.909C46.9289 446.265 47.4471 445.346 47.8963 444.352C48.3435 443.363 48.7123 442.323 48.9984 441.453C49.1199 441.083 49.2288 440.737 49.3226 440.438C49.4445 440.05 49.541 439.743 49.6065 439.572C49.8265 439 50.7211 436.292 51.5987 433.556C52.4786 430.812 53.3238 428.094 53.4537 427.487C53.5951 426.826 54.19 425.091 54.8611 423.3C55.535 421.501 56.3044 419.597 56.8077 418.59C57.2813 417.642 57.9879 415.465 58.6823 412.902C59.3797 410.328 60.0547 407.402 60.4583 405.023C60.6619 403.824 60.9217 402.586 61.1854 401.342L61.2315 401.125C61.4807 399.95 61.7309 398.77 61.9413 397.602C62.3889 395.115 62.6495 392.712 62.3435 390.568C62.3132 390.356 62.2835 390.149 62.2546 389.948C61.6838 385.979 61.403 384.028 62.7269 380.848C63.2281 379.644 63.7595 378.276 64.2945 376.898C65.1824 374.613 66.0804 372.301 66.8677 370.669C66.924 370.552 66.9867 370.421 67.0564 370.275C68.5518 367.148 73.2453 357.332 86.3107 340.126C99.9394 322.179 108.537 301.997 110.86 290.012C112.728 280.376 114.273 271.615 114.812 268.44C114.819 268.397 114.834 268.356 114.857 268.318C122.985 254.518 129.178 242.962 132.803 230.099C132.846 229.946 132.983 229.84 133.142 229.837C133.3 229.834 133.442 229.935 133.491 230.085C134.436 233.001 135.988 237.039 137.578 241.176C137.869 241.934 138.162 242.695 138.452 243.454C140.321 248.336 142.101 253.102 142.826 256.005C143.544 258.88 143.99 260.392 144.431 261.563C144.763 262.442 145.092 263.129 145.541 264.068C145.691 264.382 145.855 264.724 146.037 265.111L146.172 265.397C147.561 268.349 148.949 271.298 149.304 274.94C149.378 275.7 149.506 276.664 149.665 277.802C149.706 278.096 149.748 278.402 149.793 278.718C150.399 283.035 151.282 289.332 151.282 295.925C151.282 300.367 150.462 304.495 149.662 308.515L149.636 308.651C148.826 312.725 148.049 316.689 148.138 320.824C148.195 323.515 148.272 325.711 148.349 327.561C148.402 328.832 148.455 329.941 148.503 330.937C148.601 332.983 148.677 334.545 148.677 336.028C148.677 336.893 148.438 337.926 148.075 339.151C147.861 339.874 147.597 340.684 147.304 341.583C147.101 342.205 146.884 342.87 146.661 343.577C145.564 347.049 144.268 351.658 143.463 357.834C142.844 362.581 142.239 366.081 141.696 369.018C141.569 369.71 141.445 370.37 141.325 371.007C140.936 373.077 140.592 374.907 140.314 376.812C140.09 378.35 139.908 379.935 139.782 381.731C139.781 381.741 139.78 381.752 139.778 381.763C137.714 394.534 133.556 423.946 133.413 439.525C133.285 453.389 134.065 469.186 134.591 479.857C134.805 484.202 134.978 487.697 135.03 489.866C135.209 497.31 136.195 507.62 138.701 516.936C138.939 517.82 139.196 518.718 139.466 519.624C140.109 521.782 140.827 523.985 141.545 526.177L141.717 526.699C142.377 528.714 143.034 530.716 143.626 532.655C144.911 536.86 145.908 540.808 145.991 543.995C146.076 547.281 145.58 549.379 145.02 551.75C144.981 551.914 144.942 552.079 144.903 552.246C144.3 554.815 143.654 557.846 143.565 563.162C143.386 573.848 144.014 584.806 144.193 587.681C144.207 587.894 144.186 588.22 144.143 588.625C144.1 589.037 144.032 589.555 143.943 590.164C143.765 591.383 143.503 592.982 143.188 594.863C143.071 595.562 142.946 596.301 142.816 597.074C142.245 600.462 141.562 604.513 140.899 608.821C139.27 619.415 137.773 631.513 138.353 639.108C139.356 652.238 143.016 675.275 145.336 689.883C145.714 692.26 146.056 694.415 146.346 696.266C146.65 698.21 147.002 700.38 147.38 702.703C148.286 708.27 149.335 714.721 150.199 721.068C151.422 730.057 152.282 738.882 151.829 744.725C151.38 750.528 151.065 753.611 150.863 755.569L150.847 755.718C150.656 757.57 150.573 758.374 150.573 759.623C150.573 760.805 150.84 762.283 151.135 763.908L151.196 764.246C151.51 765.985 151.83 767.858 151.83 769.604C151.83 770.892 151.895 772.047 151.95 773.05C151.968 773.369 151.985 773.672 151.998 773.959C152.027 774.55 152.041 775.079 152.019 775.526C151.998 775.967 151.939 776.365 151.798 776.676C151.606 777.1 151.304 777.527 150.984 777.982C150.901 778.099 150.817 778.218 150.733 778.339C150.314 778.947 149.858 779.665 149.468 780.62C149.157 781.379 149.029 782.074 148.901 782.768C148.869 782.94 148.837 783.112 148.803 783.285C148.63 784.148 148.391 785.005 147.706 785.837C147.348 786.272 146.727 786.759 145.998 787.305C145.829 787.432 145.652 787.563 145.469 787.698C143.347 789.272 140.377 791.476 138.393 794.785C136.939 797.21 136.257 799.634 136.004 801.659C135.751 803.692 135.932 805.3 136.181 806.091C136.309 806.497 136.432 806.746 136.536 806.908C136.637 807.064 136.727 807.147 136.81 807.216C136.879 807.274 137.03 807.382 137.129 807.539C137.239 807.714 137.276 807.921 137.276 808.178C137.276 808.546 137.451 809.176 137.802 809.712C138.152 810.248 138.617 810.606 139.163 810.606C139.864 810.606 140.389 810.539 140.737 810.44C140.912 810.39 141.027 810.335 141.095 810.289C141.133 810.263 141.148 810.245 141.153 810.239C141.198 810.074 141.355 809.964 141.526 809.977C141.701 809.991 141.841 810.128 141.857 810.303C141.914 810.936 142.04 811.499 142.251 811.911C142.458 812.314 142.726 812.537 143.077 812.587C143.99 812.718 144.81 812.691 145.429 812.508C146.045 812.327 146.414 812.008 146.546 811.579C146.595 811.419 146.747 811.315 146.913 811.326C147.08 811.337 147.216 811.461 147.244 811.626C147.346 812.246 147.575 812.795 147.972 813.187C148.362 813.573 148.952 813.843 149.854 813.843C150.729 813.843 151.324 813.559 151.734 813.157C152.152 812.748 152.406 812.189 152.541 811.604C152.584 811.419 152.762 811.3 152.948 811.329C153.135 811.359 153.267 811.529 153.249 811.717C153.182 812.456 153.307 813.563 153.878 814.472C154.434 815.356 155.435 816.09 157.221 816.09C158.355 816.09 159.128 815.829 159.664 815.462C160.201 815.095 160.53 814.602 160.74 814.088C160.952 813.571 161.04 813.041 161.097 812.61C161.105 812.548 161.113 812.485 161.12 812.425C161.138 812.285 161.154 812.154 161.172 812.051C161.185 811.977 161.202 811.894 161.23 811.82C161.25 811.766 161.308 811.62 161.462 811.543C161.715 811.416 162.072 811.37 162.364 811.37C162.517 811.37 162.672 811.382 162.809 811.411C162.928 811.436 163.102 811.487 163.225 811.61C163.312 811.697 163.338 811.804 163.347 811.845C163.36 811.901 163.365 811.959 163.368 812.01C163.373 812.113 163.371 812.242 163.368 812.375C163.361 812.652 163.347 812.994 163.363 813.366C163.396 814.128 163.551 814.904 164.033 815.387C164.588 815.942 165.263 816.448 166.236 816.797C167.214 817.148 168.512 817.348 170.32 817.26C174.787 817.042 177.456 814.425 179.057 811.714C180.428 809.393 180.993 807.048 181.222 806.098C181.262 805.933 181.291 805.81 181.313 805.737C181.351 805.612 181.413 805.449 181.489 805.252C182.002 803.922 183.118 801.023 181.165 797.565C180.854 797.015 180.569 796.525 180.312 796.084C179.881 795.342 179.529 794.738 179.269 794.214C179.059 793.789 178.899 793.4 178.799 793.012C178.541 792.004 178.712 791.086 179.257 789.703C179.554 788.948 179.907 788.196 180.265 787.444L180.357 787.249C180.686 786.558 181.016 785.865 181.315 785.154C181.969 783.601 182.466 781.989 182.466 780.214C182.466 778.41 182.226 777.386 181.996 776.543C181.973 776.459 181.95 776.375 181.927 776.293C181.718 775.541 181.525 774.846 181.568 773.815C181.589 773.312 181.643 772.486 181.71 771.454C181.936 767.989 182.314 762.198 182.107 758.474C182.042 757.3 181.72 755.831 181.264 754.101C181.036 753.238 180.778 752.318 180.504 751.344C180.231 750.371 179.944 749.344 179.659 748.274C178.523 743.993 177.434 738.987 177.525 733.721C177.705 723.263 180.674 699.039 185.987 682.634C191.267 666.334 191 652.542 190.014 640.333C189.654 635.876 188.659 630.982 187.643 625.983C187.271 624.152 186.896 622.308 186.549 620.466C185.257 613.621 184.345 606.817 185.437 601.034C186.52 595.297 188.1 590.622 189.516 586.518L189.678 586.047C191.029 582.134 192.194 578.758 192.621 575.429C193.067 571.946 193.179 566.283 193.281 561.126L193.281 561.094C193.332 558.533 193.379 556.102 193.465 554.14C193.508 553.156 193.56 552.285 193.628 551.574C193.695 550.871 193.779 550.299 193.891 549.925C194.109 549.196 194.465 547.428 194.874 545.11C195.926 539.145 197.302 529.725 197.56 525.728C197.683 523.813 198.386 520.054 199.322 515.605C200.26 511.148 201.439 505.967 202.527 501.19L202.528 501.184L202.747 500.225C203.705 496.012 204.572 492.184 205.113 489.533C205.273 488.748 205.452 487.888 205.646 486.959C207.627 477.438 211.117 460.674 211.035 443.839V434.421C211.035 434.318 211.08 434.219 211.157 434.151C211.234 434.083 211.337 434.051 211.439 434.064C212.239 434.164 213.092 434.216 214 434.216C214.908 434.216 215.761 434.164 216.561 434.064C216.663 434.051 216.766 434.083 216.843 434.151C216.92 434.219 216.965 434.318 216.965 434.421V443.839C216.883 460.674 220.373 477.438 222.354 486.959C222.548 487.888 222.727 488.748 222.887 489.533C223.428 492.184 224.295 496.012 225.253 500.225L225.472 501.184L225.473 501.19C226.561 505.967 227.74 511.148 228.678 515.605C229.614 520.054 230.317 523.813 230.44 525.728C230.698 529.725 232.074 539.145 233.126 545.11C233.535 547.428 233.891 549.196 234.109 549.925C234.221 550.299 234.305 550.871 234.372 551.574C234.44 552.285 234.492 553.156 234.535 554.14C234.621 556.102 234.668 558.533 234.719 561.094L234.719 561.126C234.821 566.283 234.933 571.946 235.379 575.429C235.806 578.758 236.971 582.134 238.322 586.047L238.484 586.518C239.9 590.622 241.48 595.297 242.563 601.034C243.655 606.817 242.743 613.621 241.451 620.466C241.104 622.308 240.729 624.152 240.357 625.983C239.341 630.982 238.346 635.876 237.986 640.333C237 652.542 236.733 666.334 242.013 682.634C247.326 699.039 250.295 723.263 250.475 733.721C250.566 738.987 249.477 743.993 248.341 748.274C248.056 749.344 247.769 750.371 247.496 751.344L247.478 751.408C247.211 752.359 246.959 753.257 246.736 754.101C246.28 755.831 245.958 757.3 245.893 758.474C245.686 762.198 246.064 767.989 246.29 771.454C246.357 772.486 246.411 773.312 246.432 773.815C246.475 774.846 246.282 775.541 246.073 776.293C246.05 776.375 246.027 776.459 246.004 776.543C245.774 777.386 245.534 778.41 245.534 780.214C245.534 781.989 246.031 783.601 246.685 785.154C246.984 785.865 247.314 786.558 247.643 787.249L247.735 787.444C248.093 788.196 248.446 788.948 248.743 789.703C249.288 791.086 249.459 792.004 249.201 793.012C249.101 793.4 248.941 793.789 248.731 794.214C248.471 794.738 248.119 795.343 247.687 796.084C247.431 796.525 247.146 797.015 246.835 797.565C244.882 801.023 245.998 803.922 246.511 805.252C246.587 805.449 246.649 805.612 246.687 805.737C246.709 805.81 246.738 805.933 246.778 806.098C247.007 807.048 247.572 809.393 248.943 811.714C250.544 814.425 253.213 817.042 257.68 817.26C259.488 817.348 260.786 817.148 261.764 816.797C262.737 816.448 263.412 815.942 263.967 815.387C264.449 814.904 264.604 814.128 264.637 813.366C264.651 813.041 264.642 812.74 264.635 812.484L264.632 812.375C264.629 812.242 264.627 812.113 264.632 812.01C264.635 811.959 264.64 811.901 264.653 811.845C264.662 811.804 264.688 811.697 264.775 811.61C264.898 811.487 265.072 811.436 265.191 811.411C265.328 811.382 265.483 811.37 265.636 811.37C265.928 811.37 266.285 811.416 266.538 811.543C266.692 811.62 266.75 811.766 266.77 811.82C266.798 811.894 266.815 811.977 266.828 812.051C266.854 812.199 266.876 812.405 266.903 812.61C266.96 813.041 267.048 813.571 267.26 814.088C267.47 814.602 267.799 815.095 268.336 815.462C268.872 815.829 269.645 816.09 270.779 816.09C272.565 816.09 273.566 815.356 274.122 814.472C274.693 813.563 274.818 812.456 274.751 811.717C274.733 811.529 274.865 811.359 275.052 811.329C275.238 811.3 275.416 811.419 275.459 811.604C275.594 812.189 275.848 812.748 276.266 813.157C276.676 813.559 277.271 813.843 278.146 813.843C279.032 813.843 279.62 813.57 280.014 813.181C280.415 812.785 280.649 812.233 280.757 811.622C280.786 811.458 280.923 811.336 281.089 811.326C281.254 811.315 281.406 811.42 281.454 811.579C281.586 812.008 281.955 812.327 282.571 812.508C283.19 812.691 284.01 812.718 284.923 812.587C285.257 812.54 285.525 812.315 285.736 811.902C285.951 811.483 286.081 810.917 286.144 810.3C286.161 810.126 286.301 809.99 286.475 809.977C286.646 809.965 286.802 810.075 286.847 810.239C286.852 810.245 286.867 810.263 286.905 810.289C286.973 810.335 287.088 810.39 287.263 810.44C287.611 810.539 288.136 810.606 288.837 810.606C289.383 810.606 289.848 810.248 290.198 809.712C290.549 809.176 290.724 808.546 290.724 808.178C290.724 807.921 290.761 807.714 290.871 807.539C290.955 807.405 291.078 807.306 291.155 807.244C291.168 807.234 291.18 807.224 291.19 807.216C291.273 807.147 291.363 807.064 291.464 806.908C291.568 806.746 291.691 806.497 291.819 806.091C292.068 805.3 292.25 803.692 291.996 801.659C291.743 799.634 291.061 797.21 289.607 794.785C287.623 791.476 284.652 789.272 282.531 787.698C282.348 787.563 282.171 787.432 282.002 787.305C281.273 786.759 280.652 786.272 280.294 785.837C279.609 785.005 279.37 784.148 279.198 783.285C279.163 783.112 279.131 782.94 279.099 782.768C278.971 782.074 278.843 781.379 278.532 780.62C278.142 779.665 277.686 778.947 277.266 778.339C277.183 778.218 277.099 778.099 277.016 777.981C276.695 777.527 276.394 777.1 276.202 776.676C276.061 776.365 276.002 775.967 275.981 775.526C275.959 775.079 275.973 774.55 276.002 773.959C276.015 773.672 276.032 773.369 276.05 773.05C276.105 772.047 276.17 770.892 276.17 769.604C276.17 767.858 276.49 765.985 276.804 764.246L276.866 763.907C277.16 762.282 277.427 760.805 277.427 759.623C277.427 758.374 277.344 757.57 277.153 755.718L277.137 755.569C276.935 753.611 276.62 750.528 276.171 744.725C275.718 738.882 276.578 730.057 277.801 721.068C278.665 714.721 279.714 708.271 280.62 702.704C280.997 700.38 281.35 698.21 281.654 696.266C281.944 694.414 282.286 692.26 282.664 689.882C284.984 675.275 288.644 652.238 289.647 639.108C290.227 631.513 288.73 619.415 287.101 608.821C286.438 604.514 285.756 600.465 285.184 597.077C285.054 596.303 284.929 595.564 284.812 594.863C284.497 592.982 284.235 591.383 284.057 590.164C283.968 589.555 283.9 589.037 283.857 588.625C283.814 588.22 283.793 587.894 283.807 587.681C283.986 584.806 284.614 573.848 284.435 563.162C284.346 557.846 283.7 554.815 283.097 552.246C283.058 552.079 283.019 551.914 282.98 551.75C282.42 549.379 281.924 547.281 282.009 543.995C282.092 540.808 283.089 536.86 284.374 532.655C284.966 530.716 285.623 528.715 286.283 526.7L286.455 526.177C287.173 523.985 287.891 521.782 288.534 519.624C288.804 518.718 289.061 517.82 289.299 516.936C291.805 507.62 292.791 497.31 292.97 489.866C293.022 487.697 293.195 484.202 293.409 479.858C293.935 469.187 294.715 453.389 294.587 439.525C294.443 423.946 290.286 394.534 288.222 381.763C288.22 381.752 288.219 381.741 288.218 381.731C288.092 379.935 287.91 378.35 287.686 376.812C287.408 374.907 287.064 373.077 286.675 371.007C286.555 370.37 286.431 369.71 286.304 369.018C285.761 366.081 285.156 362.581 284.537 357.834C283.732 351.658 282.436 347.049 281.339 343.577C281.116 342.869 280.899 342.205 280.696 341.582C280.403 340.684 280.139 339.874 279.925 339.151C279.562 337.926 279.323 336.893 279.323 336.028C279.323 334.545 279.399 332.983 279.497 330.937C279.545 329.942 279.598 328.832 279.651 327.561C279.728 325.711 279.805 323.515 279.862 320.824C279.951 316.689 279.174 312.725 278.364 308.651L278.338 308.515C277.538 304.495 276.718 300.367 276.718 295.925C276.718 289.332 277.601 283.036 278.207 278.718C278.251 278.402 278.294 278.097 278.335 277.802C278.494 276.664 278.622 275.7 278.696 274.94C279.051 271.298 280.439 268.349 281.828 265.397L281.838 265.376L281.963 265.111C282.145 264.724 282.309 264.382 282.459 264.068C282.908 263.129 283.237 262.442 283.569 261.563C284.01 260.392 284.456 258.88 285.174 256.005C285.899 253.102 287.679 248.336 289.548 243.454C289.838 242.695 290.131 241.934 290.423 241.175C292.012 237.039 293.564 233.001 294.509 230.085C294.558 229.935 294.7 229.834 294.858 229.837C295.017 229.84 295.154 229.946 295.197 230.099C298.822 242.962 305.015 254.518 313.143 268.318C313.156 268.34 313.167 268.363 313.175 268.387C313.181 268.405 313.185 268.422 313.188 268.44C313.727 271.615 315.272 280.376 317.14 290.012C319.463 301.997 328.061 322.179 341.689 340.126C354.755 357.332 359.448 367.148 360.944 370.275C361.013 370.421 361.076 370.552 361.132 370.669C361.92 372.301 362.818 374.613 363.706 376.899C364.241 378.276 364.772 379.644 365.273 380.848C366.597 384.027 366.316 385.979 365.745 389.948C365.716 390.149 365.687 390.356 365.656 390.568C365.35 392.712 365.611 395.115 366.059 397.602C366.269 398.77 366.519 399.949 366.768 401.124L366.815 401.342C367.078 402.586 367.338 403.824 367.542 405.023C367.945 407.402 368.62 410.328 369.318 412.902C370.012 415.465 370.719 417.642 371.192 418.59C371.696 419.597 372.465 421.501 373.139 423.3C373.81 425.091 374.405 426.826 374.546 427.487C374.676 428.094 375.521 430.812 376.401 433.556C377.279 436.292 378.174 439 378.394 439.572C378.459 439.742 378.555 440.049 378.677 440.437C378.771 440.736 378.88 441.083 379.002 441.453C379.288 442.323 379.657 443.363 380.104 444.352C380.553 445.346 381.071 446.265 381.648 446.909C382.228 447.556 382.813 447.866 383.407 447.796C384.124 447.712 384.639 447.509 385.011 447.234C385.381 446.961 385.631 446.601 385.796 446.161C386.134 445.26 386.101 444.057 385.966 442.704C385.846 441.505 385.45 439.722 385.014 437.991C384.644 436.518 384.251 435.108 383.983 434.148C383.875 433.76 383.788 433.445 383.73 433.23C383.553 432.564 383.335 431.375 383.12 430.202L383.095 430.066C382.869 428.832 382.648 427.64 382.474 427.032C382.405 426.79 382.27 426.391 382.101 425.892C382.057 425.763 382.011 425.628 381.964 425.487C381.735 424.808 381.472 424.012 381.25 423.245C381.03 422.483 380.846 421.73 380.782 421.143C380.751 420.853 380.745 420.573 380.794 420.343C380.843 420.118 380.971 419.839 381.288 419.752C381.537 419.684 381.766 419.755 381.951 419.877C382.127 419.994 382.28 420.169 382.414 420.36C382.682 420.745 382.933 421.288 383.165 421.878C383.465 422.64 383.756 423.54 384.019 424.352C384.161 424.791 384.294 425.204 384.417 425.556C385.144 427.649 386.406 433.065 386.765 434.772C386.941 435.608 387.496 437.5 388.083 439.487L388.152 439.722C388.713 441.621 389.286 443.562 389.548 444.653C389.606 444.896 389.677 445.239 389.765 445.657C390.092 447.229 390.642 449.869 391.556 452.297C392.134 453.833 392.846 455.247 393.713 456.233C394.575 457.213 395.556 457.735 396.702 457.597C397.867 457.456 398.562 456.838 398.967 455.921C399.383 454.976 399.49 453.707 399.407 452.311C399.263 449.885 398.557 447.22 398.106 445.519C398.039 445.265 397.977 445.033 397.924 444.826C397.515 443.232 397.288 441.777 397.052 440.169C397.03 440.022 397.009 439.874 396.987 439.724C396.769 438.234 396.529 436.589 396.123 434.557C395.677 432.324 394.76 428.874 393.917 425.907C393.497 424.426 393.096 423.068 392.784 422.048C392.628 421.538 392.494 421.113 392.391 420.8C392.34 420.644 392.297 420.517 392.263 420.422C392.246 420.374 392.232 420.336 392.22 420.307C392.215 420.292 392.21 420.281 392.206 420.273C392.203 420.264 392.201 420.26 392.201 420.26C392.083 420.025 392.089 419.779 392.19 419.568C392.286 419.37 392.454 419.226 392.631 419.137C392.976 418.964 393.492 418.942 393.855 419.306C393.949 419.4 394.031 419.531 394.102 419.664C394.14 419.735 394.179 419.814 394.219 419.9C394.257 419.981 394.295 420.069 394.334 420.162C394.493 420.542 394.67 421.032 394.861 421.59C394.979 421.932 395.103 422.303 395.232 422.694C395.314 422.941 395.397 423.195 395.483 423.456C395.705 424.129 395.94 424.84 396.186 425.557C396.688 427.017 397.681 431.04 398.588 434.852C399.104 437.018 399.593 439.12 399.953 440.668C400.229 441.857 400.43 442.719 400.507 443.031C400.691 443.764 400.985 445.352 401.287 446.986C401.591 448.631 401.904 450.331 402.126 451.311C402.568 453.255 403.633 455.739 403.975 456.337C404.311 456.926 405.384 458.494 407.705 458.494C408.274 458.494 408.725 458.357 409.087 458.117C409.452 457.875 409.75 457.512 409.987 457.022C410.467 456.03 410.67 454.569 410.67 452.739C410.67 450.933 410.339 448.872 409.936 446.876C409.759 445.997 409.565 445.121 409.38 444.29C409.152 443.258 408.938 442.294 408.789 441.474C408.537 440.082 408.421 439.022 408.306 437.978L408.28 437.74C408.157 436.62 408.024 435.485 407.712 433.927C407.401 432.368 406.574 429.211 405.764 426.195C405.515 425.266 405.267 424.351 405.037 423.501C404.523 421.602 404.098 420.03 403.942 419.373C403.724 418.458 403.374 417.535 403.053 416.805C402.729 416.068 402.447 415.552 402.375 415.443C402.233 415.229 402.285 414.984 402.338 414.844C402.399 414.685 402.506 414.529 402.64 414.411C402.77 414.297 402.969 414.184 403.208 414.203C403.467 414.223 403.665 414.389 403.795 414.616C403.992 414.96 404.248 415.573 404.651 416.659C405.057 417.753 405.619 419.353 406.428 421.69C406.869 422.965 407.349 424.451 407.822 425.96C408.585 428.399 409.325 430.885 409.851 432.652C410.202 433.829 410.457 434.687 410.562 435.002C410.695 435.402 410.888 436.338 411.087 437.386C411.278 438.394 411.48 439.537 411.649 440.485C411.819 441.443 411.952 442.181 412.007 442.401C412.014 442.429 412.022 442.464 412.032 442.506C412.155 443.013 412.513 444.498 413.296 445.886C414.147 447.391 415.438 448.685 417.393 448.603C418.372 448.562 419.007 448.187 419.434 447.64C419.874 447.077 420.116 446.301 420.23 445.431C420.404 444.107 420.271 442.69 420.175 441.662C420.143 441.327 420.116 441.034 420.104 440.798C420.016 439.031 419.124 434.027 418.403 430.237C417.686 426.472 416.251 420.456 415.443 417.219C415.35 416.847 415.24 416.407 415.118 415.912C414.17 412.085 412.427 405.054 411.32 401.968C410.319 399.178 408.336 394.651 407.468 392.734C407.418 392.622 407.427 392.493 407.493 392.39C407.559 392.287 407.673 392.225 407.795 392.225C408.5 392.225 409.544 392.543 410.524 392.937C411.515 393.336 412.507 393.842 413.121 394.268C413.677 394.653 414.085 395.154 414.521 395.689C414.583 395.765 414.646 395.842 414.71 395.919C415.228 396.549 415.859 397.267 416.905 398.052C417.932 398.823 419.383 399.433 420.921 399.717C422.46 400.001 424.051 399.952 425.364 399.443C426.616 398.958 427.149 398.004 427.259 397.04C427.373 396.046 427.033 395.084 426.587 394.638C426.066 394.116 425.432 393.612 424.812 393.127L424.673 393.018C424.112 392.58 423.565 392.152 423.173 391.76C422.715 391.301 422.558 390.906 422.416 390.516L422.395 390.459C422.269 390.11 422.143 389.762 421.792 389.294C421.01 388.25 419.42 386.744 418.174 385.765C417.574 385.292 416.612 384.744 415.609 384.202C415.316 384.044 415.02 383.887 414.73 383.733C414.043 383.367 413.391 383.021 412.911 382.733C412.195 382.303 411.583 381.711 411.011 381.139C410.954 381.082 410.898 381.025 410.841 380.968C410.323 380.448 409.833 379.956 409.293 379.57C408.057 378.686 404.936 376.811 401.728 375.473L401.727 375.473C400.791 375.08 398.775 374.256 398.079 374.047C397.622 373.91 396.219 373.457 394.826 372.902C394.13 372.624 393.429 372.318 392.847 372.01C392.556 371.856 392.29 371.699 392.066 371.542C391.847 371.387 391.65 371.22 391.516 371.041C391.47 370.979 391.417 370.889 391.361 370.782C391.327 370.718 391.292 370.648 391.256 370.573C391.155 370.364 391.033 370.092 390.892 369.766C390.611 369.113 390.25 368.232 389.833 367.177C388.998 365.068 387.93 362.258 386.795 359.182C384.526 353.032 381.985 345.809 380.5 340.989C379.14 336.576 377.97 330.476 376.616 323.419C376.487 322.745 376.356 322.063 376.223 321.372C374.696 313.438 372.901 304.413 370.345 295.212C365.657 278.336 361.35 270.383 357.621 263.495C357.285 262.876 356.955 262.265 356.629 261.657C355.737 259.993 354.962 258.629 354.279 257.427C351.949 253.326 350.688 251.107 349.496 245.285C348.738 241.579 347.128 236.632 345.477 231.854C344.953 230.338 344.425 228.838 343.919 227.403C342.835 224.325 341.853 221.54 341.239 219.511C340.532 217.175 338.781 213.562 336.864 209.973C334.951 206.392 332.888 202.865 331.573 200.712C331.543 200.662 331.525 200.606 331.522 200.548C331.371 198.324 331.071 192.297 331.071 185.958C331.071 178.047 330.348 162.863 322.689 151.633C319.104 146.376 316.176 143.28 313.037 141.047C309.893 138.809 306.519 137.421 301.999 135.599C301.338 135.333 300.653 135.058 299.942 134.769C294.767 132.671 291.271 132.047 287.792 131.509C287.533 131.469 287.273 131.429 287.013 131.39C283.774 130.895 280.433 130.385 275.702 128.751C265.536 125.24 256.978 121.364 252.011 118.472C249.539 117.032 247.141 115.561 245.336 114.175C244.433 113.482 243.667 112.801 243.112 112.147C242.563 111.5 242.185 110.839 242.131 110.188C242.081 109.596 242.059 107.699 242.052 105.214C242.039 100.196 242.089 92.6897 242.129 88.3053C242.13 88.2257 242.157 88.1486 242.206 88.0861C242.591 87.5975 242.922 86.8597 243.205 85.9623C243.486 85.0711 243.71 84.0509 243.895 83.0189C244.079 81.9878 244.222 80.9521 244.342 80.0306C244.373 79.7914 244.403 79.5591 244.431 79.3363C244.512 78.706 244.582 78.1519 244.649 77.7316C244.801 76.7825 244.871 75.8997 244.924 75.2377C244.933 75.1275 244.941 75.0234 244.949 74.9262C244.976 74.6046 245.003 74.3151 245.05 74.1497C245.062 74.108 245.084 74.0397 245.128 73.9759C245.17 73.9145 245.301 73.7669 245.52 73.8052C245.683 73.8338 245.768 73.9537 245.79 73.9853C245.826 74.0355 245.853 74.0914 245.874 74.14C245.886 74.1683 245.898 74.1967 245.91 74.2253C246.039 74.5307 246.175 74.8525 246.479 75.1476C246.803 75.4632 247.353 75.7754 248.373 75.9029C248.745 75.9495 249.145 75.7646 249.592 75.2973C250.036 74.8336 250.469 74.1496 250.898 73.3478C251.288 72.6162 251.664 71.8089 252.033 71.0145L252.134 70.7973C252.533 69.9403 252.927 69.1041 253.319 68.4351C254.052 67.1843 254.694 65.097 255.175 62.767C255.654 60.447 255.966 57.9261 256.055 55.8336C256.095 54.8815 256.028 54.0802 255.881 53.4082C255.637 52.2941 255.174 51.5332 254.615 51.0192C254.054 50.5036 253.374 50.2171 252.666 50.0884C252.046 49.9756 251.456 50.2841 250.933 50.8127C250.414 51.3367 250.024 52.0186 249.827 52.4826C249.758 52.6458 249.58 52.7342 249.409 52.6909C249.237 52.6476 249.122 52.4854 249.138 52.3089C249.422 49.2454 249.736 44.2973 249.755 39.4175C249.773 34.5211 249.494 29.7497 248.615 27.0056C247.507 23.546 244.408 17.1246 238.802 11.5735C233.202 6.02975 225.109 1.35962 213.991 1.35962C202.872 1.35962 194.784 6.02972 189.189 11.5734ZM266.096 812.071L266.097 812.073C266.093 812.064 266.093 812.062 266.096 812.071Z" fill="#FAF6F1"/>
<path d="M20.2048 392.585C18.9471 392.585 16.2518 393.754 15.0839 394.563C13.916 395.373 13.4668 396.721 11.3106 398.34C9.15445 399.958 5.29129 400.857 2.50623 399.778C-0.278822 398.699 0.08054 395.462 1.15863 394.383C2.23671 393.304 3.764 392.315 4.57257 391.506C5.38113 390.697 5.11161 390.157 5.92017 389.078C6.72874 387.999 8.34587 386.471 9.60363 385.482C10.8614 384.493 13.5566 383.234 14.9042 382.425C16.2518 381.615 17.2401 380.177 18.4978 379.278C19.7556 378.378 22.9 376.49 26.1343 375.141C27.0626 374.752 29.099 373.918 29.8178 373.703C30.7162 373.433 35.3879 371.904 36.1964 370.825C37.005 369.746 44.1922 350.504 47.157 340.883C50.1217 331.262 52.1881 313.549 57.309 295.116C62.4299 276.683 67.1016 268.86 71.0546 261.487C75.0075 254.114 76.6247 252.675 78.152 245.212C79.6793 237.749 84.6205 225.341 86.4173 219.406C87.8547 214.659 93.4847 204.84 96.1201 200.524C96.2698 198.306 96.5693 192.288 96.5693 185.958C96.5693 178.045 97.288 162.759 105.014 151.43C112.213 140.873 116.838 138.904 125.867 135.266M20.2048 392.585C21.211 392.585 21.7621 392.705 21.9118 392.765C25.3619 393.994 33.5539 395.714 38.7213 392.765C43.8886 389.816 46.1388 388.179 46.6179 387.73M20.2048 392.585C19.3364 394.503 17.3479 399.041 16.3417 401.846C15.0839 405.353 13.0176 413.895 12.209 417.132C11.4005 420.369 9.96301 426.394 9.24429 430.17C8.52556 433.947 7.62716 438.982 7.53732 440.78C7.44748 442.579 6.27955 448.783 10.5919 448.963C14.9042 449.142 16.162 443.208 16.3417 442.489C16.4594 442.017 16.5896 439.913 16.9706 437.903C17.1712 436.845 17.6552 435.488 17.7791 435.115C18.0409 434.33 19.2559 430.109 20.5215 426.068C20.9935 424.56 21.4725 423.078 21.9118 421.808C23.5289 417.132 24.1578 415.424 24.5172 414.794C24.8765 414.165 25.5054 414.974 25.3257 415.244C25.1461 415.514 24.1578 417.402 23.7086 419.29C23.2594 421.178 20.5642 430.71 19.9353 433.857C19.3064 437.004 19.3963 438.442 18.8572 441.41C18.3182 444.377 16.9706 449.052 16.9706 452.739C16.9706 456.426 17.7791 458.853 20.2947 458.853C22.8102 458.853 23.9781 457.145 24.3375 456.516C24.6969 455.886 25.7749 453.368 26.2241 451.39C26.6733 449.412 27.4819 444.557 27.8413 443.118C28.2006 441.679 31.1654 428.552 32.1536 425.674C33.1419 422.797 33.9504 420.01 34.3996 419.56C34.8488 419.11 35.7472 419.56 35.4777 420.099C35.2082 420.639 32.4231 429.99 31.5247 434.486C30.6263 438.982 30.5365 441.589 29.7279 444.737C28.9194 447.884 26.0445 457.325 31.2552 457.954C36.466 458.584 38.2628 446.984 38.8018 444.737C39.3409 442.489 41.2275 436.554 41.5869 434.846C41.9462 433.137 43.204 427.742 43.9227 425.674C44.6414 423.606 45.6297 419.83 46.6179 420.099C47.6062 420.369 45.5399 425.674 45.1805 426.933C44.8211 428.192 44.2821 431.789 43.9227 433.137C43.727 433.872 43.1583 435.833 42.6373 437.903C42.2017 439.634 41.7995 441.44 41.6767 442.668C41.4072 445.366 41.497 447.794 44.5516 448.153C47.6062 448.513 49.4928 440.87 49.942 439.701C50.3912 438.532 53.5357 428.821 53.8052 427.563C54.0747 426.304 56.141 420.729 57.1293 418.751C57.6212 417.766 58.3358 415.556 59.0293 412.996C59.7288 410.414 60.4067 407.477 60.8127 405.083C61.6213 400.318 63.3283 394.923 62.6994 390.517C62.0705 386.111 61.7111 384.223 63.0588 380.986C64.4064 377.749 65.9337 373.433 67.1914 370.825C68.4492 368.218 72.9412 358.327 86.597 340.344C100.253 322.361 108.877 302.129 111.213 290.081C113.082 280.442 114.627 271.678 115.166 268.501C123.296 254.697 129.51 243.108 133.149 230.196M133.149 230.196C135.395 237.12 141.04 250.338 142.478 256.092C143.915 261.847 144.275 262.207 145.712 265.264L145.837 265.53C147.232 268.494 148.597 271.395 148.946 274.975C149.021 275.743 149.151 276.715 149.309 277.852M133.149 230.196C136.028 219.979 137.294 208.934 136.62 195.309M213.991 1C191.531 1 181.289 19.8824 179.043 26.8959C177.246 32.5066 177.935 46.1979 178.504 52.3422C178.085 51.3531 176.851 49.4469 175.27 49.7346C173.75 50.0111 172.284 50.9785 171.768 53.3312M141.499 810.336C141.409 810.696 140.6 810.965 139.163 810.965C137.726 810.965 136.917 809.077 136.917 808.178C136.917 807.279 136.378 807.908 135.839 806.2C135.3 804.491 135.12 799.546 138.085 794.601C140.283 790.933 143.667 788.601 145.783 787.017M146.889 811.685C146.53 812.853 144.913 813.213 143.026 812.943C141.517 812.728 141.379 809.796 141.499 808.358C141.439 807.578 141.589 805.696 142.667 804.401M152.892 811.685C152.602 812.941 151.777 814.202 149.854 814.202C146.979 814.202 146.68 811.265 146.889 809.796C146.949 808.657 147.249 806.182 147.967 805.39M152.892 811.685C153.035 811.063 153.048 810.442 152.998 809.976C153.028 808.567 153.196 805.678 153.627 805.39M152.892 811.685C152.748 813.273 153.412 816.45 157.221 816.45C161.982 816.45 161.264 812.044 161.623 811.864C161.982 811.685 162.791 811.685 162.971 811.864M162.971 811.864C163.15 812.044 162.611 814.472 163.779 815.641C164.947 816.81 166.654 817.799 170.338 817.619C179.591 817.167 181.388 806.739 181.658 805.84C181.927 804.941 183.814 801.524 181.478 797.388C180.633 795.893 180 794.879 179.591 794.054M162.971 811.864C162.851 810.096 162.971 806.272 164.408 805.121M211.395 434.421V443.837C211.485 462.36 207.262 480.793 205.465 489.605C204.924 492.261 204.056 496.094 203.097 500.305L202.879 501.264C200.702 510.824 198.162 521.983 197.919 525.751C197.66 529.769 196.28 539.206 195.228 545.173M211.395 434.421V434.354M211.395 434.421C212.211 434.522 213.078 434.576 214 434.576C214.922 434.576 215.789 434.522 216.605 434.421M147.348 159.702C143.661 163.748 136.288 173.064 136.288 177.955C136.288 184.069 135.115 201.783 141.139 209.066C150.923 220.894 160.815 223.093 171.865 223.093C186.4 223.093 187.946 222.554 192.259 221.654M174.65 290.081C174.74 283.697 173.752 268.501 176.537 263.376C179.322 258.25 190.462 245.212 214 245.212C237.538 245.212 248.679 258.25 251.464 263.376C254.249 268.501 253.26 283.697 253.35 290.081M149.309 277.852C149.91 282.171 150.923 288.879 150.923 295.925C150.923 304.827 147.599 312.47 147.778 320.832C147.836 323.525 147.913 325.724 147.99 327.576C148.152 331.474 148.317 333.833 148.317 336.028C148.317 339.265 144.724 345.379 143.107 357.788C141.871 367.265 140.689 371.76 139.959 376.76M149.309 277.852C150.03 281.299 153.789 290.368 163.061 299.072M125.867 135.266C126.528 134.999 127.212 134.724 127.924 134.436C138.345 130.21 142.029 131.918 152.181 128.411C162.333 124.905 170.867 121.038 175.809 118.161C180.75 115.284 185.332 112.316 185.511 110.158C185.559 109.585 185.582 107.707 185.588 105.213M125.867 135.266C135.12 132.098 146.62 133.447 159.467 136.684M181.927 140.73C186.09 140.85 195.439 141.323 199.536 142.258C204.657 143.427 205.645 142.888 201.422 136.684C199.835 134.256 196.481 128.807 195.762 126.433M185.588 105.213C185.602 100.197 185.551 92.6927 185.511 88.3086M185.588 105.213C185.686 111.747 185.485 125.534 183.904 128.411M84.2704 270.749C84.9891 273.476 86.3008 279.309 85.7977 280.819M85.7977 280.819L84.7196 284.056M85.7977 280.819C89.3195 280.028 94.1529 277.672 96.1294 276.593M139.959 376.76C139.733 378.306 139.55 379.9 139.423 381.705C137.36 394.473 133.198 423.912 133.054 439.521C132.874 459.033 134.491 482.411 134.671 489.874C134.851 497.338 135.839 507.678 138.354 517.029C138.593 517.918 138.851 518.818 139.122 519.727M139.959 376.76C141.162 369.926 147.249 355.36 151.471 354.461M139.122 519.727C141.701 528.38 145.469 537.738 145.631 544.004C145.811 550.928 143.385 552.456 143.206 563.156C143.026 573.856 143.655 584.826 143.835 587.703C144.014 590.581 136.827 623.85 137.995 639.135C139.163 654.421 143.925 683.104 145.991 696.322C148.057 709.54 152.37 733.098 151.471 744.697C150.573 756.296 150.213 757.016 150.213 759.623C150.213 762.231 151.471 766.187 151.471 769.604C151.471 773.021 151.92 775.538 151.471 776.527C151.022 777.516 149.944 778.506 149.135 780.484C148.327 782.462 148.686 784.08 147.428 785.609C147.103 786.004 146.52 786.465 145.783 787.017M139.122 519.727C142.218 529.39 149.495 540.587 156.143 546.881M195.228 545.173C194.82 547.484 194.461 549.275 194.235 550.028C193.427 552.726 193.876 568.461 192.977 575.475C192.079 582.488 187.946 589.681 185.79 601.101C183.634 612.52 189.384 628.076 190.372 640.304C191.36 652.533 191.63 666.38 186.329 682.745C181.029 699.109 178.064 723.297 177.884 733.727C177.705 744.158 182.197 753.599 182.466 758.454C182.736 763.31 182.017 771.672 181.927 773.83C181.837 775.988 182.825 776.527 182.825 780.214C182.825 783.9 180.759 786.868 179.591 789.835C179.057 791.193 178.917 792.024 179.148 792.922M195.228 545.173C194.334 549.545 191.004 555.252 185.79 557.638M164.768 543.195C172.045 556.682 178.603 559.829 183.993 558.301C184.615 558.124 185.214 557.901 185.79 557.638M185.79 557.638C186.449 559.207 187.749 563.318 187.677 567.202M149.315 563.156C148.267 570.17 146.961 585.581 150.124 591.12C154.076 598.044 165.217 598.853 171.326 594.987M149.315 596.965C152.28 600.801 158.209 613.653 158.209 634.37C158.209 655.087 159.407 679.987 160.006 689.848M177.884 754.138C176.626 756.656 175.638 762.321 177.884 766.007M179.591 794.054C179.387 793.642 179.238 793.277 179.148 792.922M179.591 794.054C179.428 793.685 179.28 793.307 179.148 792.922M179.148 792.922C177.89 789.283 177.944 785.047 178.513 782.282M179.052 59.985C179.052 61.4237 177.804 61.9632 178.154 63.4019C178.504 64.8405 180.4 66.3691 180.4 67.1783M174.65 61.5136C174.47 60.3447 176.177 58.906 176.806 57.917C177.111 57.4375 177.247 57.1059 177.306 56.7481M177.345 55.3094C177.345 55.9579 177.369 56.3678 177.306 56.7481M177.306 56.7481C177.499 57.3175 177.866 58.6902 177.794 59.6254M174.021 64.4808C174.47 65.5898 175.566 68.0595 176.357 69.0666M171.768 53.3312C171.613 54.0388 171.545 54.8718 171.586 55.8489C171.766 60.075 172.844 66.0094 174.371 68.617C175.898 71.2246 177.516 76.5296 179.672 76.2599C181.828 75.9901 182.187 74.9111 182.457 74.2817C182.726 73.6523 182.636 75.5405 182.996 77.7884C183.355 80.0364 183.625 85.5212 186.05 89.028C188.476 92.5347 193.274 97.0728 198.009 100.178C203.938 104.066 208.34 105.213 214 105.213C219.66 105.213 224.062 104.066 229.992 100.178C234.727 97.0728 239.524 92.5347 241.95 89.028C244.376 85.5212 244.645 80.0364 245.004 77.7884C245.364 75.5405 245.274 73.6523 245.543 74.2817C245.813 74.9111 246.172 75.9901 248.329 76.2599C250.485 76.5296 252.102 71.2246 253.629 68.617C255.156 66.0094 256.234 60.075 256.414 55.8489C256.456 54.8718 256.387 54.0388 256.232 53.3312M171.768 53.3312C173.559 48.7455 176.357 52.1623 176.806 53.5111M18.3275 410.478C22.9093 412.996 26.3047 415.424 29.7279 417.312C33.1512 419.2 39.8087 420.459 41.8657 420.099C43.5113 419.812 49.7386 419.74 52.6466 419.56M145.783 787.017C151.572 783.161 162.845 770.233 161.623 749.373M141.499 795.769C147.728 794.96 162.935 794.277 173.931 798.017M214 234.063V215.45M407.795 392.585C409.053 392.585 411.748 393.754 412.916 394.563C414.084 395.373 414.533 396.721 416.69 398.34C418.846 399.958 422.709 400.857 425.494 399.778C428.279 398.699 427.92 395.462 426.842 394.383C425.764 393.304 424.236 392.315 423.428 391.506C422.619 390.697 422.889 390.157 422.08 389.078C421.271 387.999 419.654 386.471 418.397 385.482C417.139 384.493 414.444 383.234 413.096 382.425C411.748 381.615 410.76 380.177 409.502 379.278C408.245 378.378 405.1 376.49 401.866 375.141C400.938 374.752 398.901 373.918 398.182 373.703C397.284 373.433 392.612 371.904 391.804 370.825C390.995 369.746 383.808 350.504 380.843 340.883C377.879 331.262 375.812 313.549 370.691 295.116C365.57 276.683 360.899 268.86 356.946 261.487C352.993 254.114 351.376 252.675 349.848 245.212C348.321 237.749 343.38 225.341 341.583 219.406C340.146 214.659 334.516 204.84 331.88 200.524C331.73 198.306 331.431 192.288 331.431 185.958C331.431 178.045 330.712 162.759 322.986 151.43C315.787 140.873 311.162 138.904 302.134 135.266M407.795 392.585C406.789 392.585 406.238 392.705 406.088 392.765C402.638 393.994 394.446 395.714 389.279 392.765C384.112 389.816 381.861 388.179 381.382 387.73M407.795 392.585C408.664 394.503 410.652 399.041 411.659 401.846C412.916 405.353 414.983 413.895 415.791 417.132C416.6 420.369 418.037 426.394 418.756 430.17C419.475 433.947 420.373 438.982 420.463 440.78C420.553 442.579 421.721 448.783 417.408 448.963C413.096 449.142 411.838 443.208 411.659 442.489C411.541 442.017 411.115 439.463 410.734 437.453C410.533 436.395 410.345 435.488 410.221 435.115C409.959 434.33 408.744 430.109 407.479 426.068C407.007 424.56 406.528 423.078 406.088 421.808C404.471 417.132 403.842 415.424 403.483 414.794C403.124 414.165 402.495 414.974 402.675 415.244C402.854 415.514 403.842 417.402 404.292 419.29C404.741 421.178 407.436 430.71 408.065 433.857C408.694 437.004 408.604 438.442 409.143 441.41C409.682 444.377 411.03 449.052 411.03 452.739C411.03 456.426 410.221 458.853 407.706 458.853C405.19 458.853 404.022 457.145 403.663 456.516C403.303 455.886 402.225 453.368 401.776 451.39C401.327 449.412 400.518 444.557 400.159 443.118C399.8 441.679 396.835 428.552 395.847 425.674C394.858 422.797 394.05 420.01 393.601 419.56C393.151 419.11 392.253 419.56 392.523 420.099C392.792 420.639 395.577 429.99 396.476 434.486C397.374 438.982 397.464 441.589 398.272 444.737C399.081 447.884 401.956 457.325 396.745 457.954C391.534 458.584 389.737 446.984 389.198 444.737C388.659 442.489 386.773 436.554 386.413 434.846C386.054 433.137 384.796 427.742 384.078 425.674C383.359 423.606 382.371 419.83 381.382 420.099C380.394 420.369 382.46 425.674 382.82 426.933C383.179 428.192 383.718 431.789 384.078 433.137C384.273 433.872 384.842 435.833 385.363 437.903C385.799 439.634 386.201 441.44 386.324 442.668C386.593 445.366 386.503 447.794 383.449 448.153C380.394 448.513 378.507 440.87 378.058 439.701C377.609 438.532 374.465 428.821 374.195 427.563C373.926 426.304 371.859 420.729 370.871 418.751C370.379 417.766 369.664 415.556 368.971 412.996C368.271 410.414 367.594 407.477 367.188 405.083C366.379 400.318 364.672 394.923 365.301 390.517C365.93 386.111 366.289 384.223 364.941 380.986C363.594 377.749 362.067 373.433 360.809 370.825C359.551 368.218 355.059 358.327 341.403 340.344C327.748 322.361 319.123 302.129 316.787 290.081C314.918 280.442 313.373 271.678 312.834 268.501C304.704 254.697 298.49 243.108 294.851 230.196M294.851 230.196C292.605 237.12 286.96 250.338 285.522 256.092C284.085 261.847 283.726 262.207 282.288 265.264L282.163 265.53C280.768 268.494 279.403 271.395 279.054 274.975C278.979 275.743 278.849 276.715 278.691 277.852M294.851 230.196C291.972 219.979 290.706 208.934 291.381 195.309M214.009 1C236.47 1 246.711 19.8824 248.957 26.8959C250.754 32.5066 250.065 46.1979 249.496 52.3422C249.916 51.3531 251.149 49.4469 252.731 49.7346C254.25 50.0111 255.717 50.9785 256.232 53.3312M286.501 810.336C286.591 810.696 287.4 810.965 288.837 810.965C290.275 810.965 291.083 809.077 291.083 808.178C291.083 807.279 291.622 807.908 292.161 806.2C292.7 804.491 292.88 799.546 289.915 794.601C287.717 790.933 284.333 788.601 282.217 787.017M281.111 811.685C281.47 812.853 283.087 813.213 284.974 812.943C286.483 812.728 286.621 809.796 286.501 808.358C286.561 807.578 286.412 805.696 285.333 804.401M275.109 811.685C275.399 812.941 276.223 814.202 278.146 814.202C281.021 814.202 281.321 811.265 281.111 809.796C281.051 808.657 280.752 806.182 280.033 805.39M275.109 811.685C274.965 811.063 274.952 810.442 275.002 809.976C274.972 808.567 274.804 805.678 274.373 805.39M275.109 811.685C275.253 813.273 274.589 816.45 270.779 816.45C266.018 816.45 266.737 812.044 266.377 811.864C266.018 811.685 265.209 811.685 265.03 811.864M265.03 811.864C264.85 812.044 265.389 814.472 264.221 815.641C263.053 816.81 261.346 817.799 257.663 817.619C248.409 817.167 246.612 806.739 246.343 805.84C246.073 804.941 244.187 801.524 246.522 797.388C247.367 795.893 248 794.879 248.409 794.054M265.03 811.864C265.149 810.096 265.03 806.272 263.592 805.121M216.605 434.421V443.837C216.516 462.36 220.738 480.793 222.535 489.605C223.077 492.261 223.945 496.094 224.903 500.305L225.122 501.264C227.298 510.824 229.839 521.983 230.082 525.751C230.341 529.769 231.72 539.206 232.773 545.173M216.605 434.421V434.354M280.652 159.702C284.339 163.748 291.712 173.064 291.712 177.955C291.712 184.069 292.885 201.783 286.861 209.066C277.077 220.894 267.186 223.093 256.135 223.093C241.6 223.093 240.054 222.554 235.742 221.654M278.691 277.852C278.091 282.171 277.077 288.879 277.077 295.925C277.077 304.827 280.402 312.47 280.222 320.832C280.164 323.525 280.088 325.724 280.01 327.576C279.848 331.474 279.683 333.833 279.683 336.028C279.683 339.265 283.276 345.379 284.894 357.788C286.129 367.265 287.312 371.76 288.042 376.76M278.691 277.852C277.971 281.299 274.211 290.368 264.94 299.072M302.134 135.266C301.473 134.999 300.788 134.724 300.077 134.436C289.655 130.21 285.972 131.918 275.82 128.411C265.668 124.905 257.133 121.038 252.192 118.161C247.25 115.284 242.669 112.316 242.489 110.158C242.441 109.585 242.419 107.707 242.412 105.213M302.134 135.266C292.88 132.098 281.381 133.447 268.533 136.684M246.073 140.73C241.911 140.85 232.561 141.323 228.464 142.258C223.344 143.427 222.355 142.888 226.578 136.684C228.165 134.256 231.519 128.807 232.238 126.433M242.412 105.213C242.398 100.197 242.449 92.6927 242.489 88.3086M242.412 105.213C242.315 111.747 242.515 125.534 244.097 128.411M343.73 270.749C343.011 273.476 341.699 279.309 342.203 280.819M342.203 280.819L343.281 284.056M342.203 280.819C338.681 280.028 333.847 277.672 331.871 276.593M288.042 376.76C288.267 378.306 288.45 379.9 288.577 381.705C290.64 394.473 294.803 423.912 294.946 439.521C295.126 459.033 293.509 482.411 293.329 489.874C293.15 497.338 292.161 507.678 289.646 517.029C289.407 517.918 289.149 518.818 288.878 519.727M288.042 376.76C286.838 369.926 280.752 355.36 276.529 354.461M288.878 519.727C286.299 528.38 282.531 537.738 282.369 544.004C282.189 550.928 284.615 552.456 284.794 563.156C284.974 573.856 284.345 584.826 284.166 587.703C283.986 590.581 291.173 623.85 290.005 639.135C288.837 654.421 284.076 683.104 282.009 696.322C279.943 709.54 275.631 733.098 276.529 744.697C277.428 756.296 277.787 757.016 277.787 759.623C277.787 762.231 276.529 766.187 276.529 769.604C276.529 773.021 276.08 775.538 276.529 776.527C276.978 777.516 278.056 778.506 278.865 780.484C279.674 782.462 279.314 784.08 280.572 785.609C280.897 786.004 281.48 786.465 282.217 787.017M288.878 519.727C285.783 529.39 278.506 540.587 271.857 546.881M232.773 545.173C233.18 547.484 233.539 549.275 233.765 550.028C234.574 552.726 234.124 568.461 235.023 575.475C235.921 582.488 240.054 589.681 242.21 601.101C244.366 612.52 238.616 628.076 237.628 640.304C236.64 652.533 236.37 666.38 241.671 682.745C246.972 699.109 249.936 723.297 250.116 733.727C250.296 744.158 245.804 753.599 245.534 758.454C245.265 763.31 245.983 771.672 246.073 773.83C246.163 775.988 245.175 776.527 245.175 780.214C245.175 783.9 247.241 786.868 248.409 789.835C248.944 791.193 249.083 792.024 248.853 792.922M232.773 545.173C233.666 549.545 236.997 555.252 242.21 557.638M263.233 543.195C255.956 556.682 249.397 559.829 244.007 558.301C243.385 558.124 242.786 557.901 242.21 557.638M242.21 557.638C241.551 559.207 240.252 563.318 240.323 567.202M278.685 563.156C279.733 570.17 281.039 585.581 277.877 591.12C273.924 598.044 262.784 598.853 256.674 594.987M278.685 596.965C275.721 600.801 269.791 613.653 269.791 634.37C269.791 655.087 268.593 679.987 267.994 689.848M250.116 754.138C251.374 756.656 252.362 762.321 250.116 766.007M248.409 794.054C248.613 793.642 248.762 793.277 248.853 792.922M248.409 794.054C248.572 793.685 248.72 793.307 248.853 792.922M248.853 792.922C250.11 789.283 250.056 785.047 249.487 782.282M248.948 59.985C248.948 61.4237 250.197 61.9632 249.846 63.4019C249.496 64.8405 247.6 66.3691 247.6 67.1783M253.35 61.5136C253.53 60.3447 251.823 58.906 251.194 57.917C250.889 57.4375 250.753 57.1059 250.694 56.7481M250.655 55.3094C250.655 55.9579 250.631 56.3678 250.694 56.7481M250.694 56.7481C250.501 57.3175 250.134 58.6902 250.206 59.6254M253.979 64.4808C253.53 65.5898 252.434 68.0595 251.643 69.0666M256.232 53.3312C254.442 48.7455 251.643 52.1623 251.194 53.5111M289.51 809.437L289.629 808.178M409.673 410.478C405.091 412.996 401.696 415.424 398.272 417.312C394.849 419.2 388.192 420.459 386.135 420.099C384.489 419.812 378.262 419.74 375.354 419.56M376.791 384.043C378.678 387.55 377.869 396.272 375.354 399.059M282.217 787.017C276.428 783.161 265.155 770.233 266.377 749.373M286.501 795.769C280.272 794.96 265.065 794.277 254.069 798.017" stroke="black" stroke-linecap="round" stroke-linejoin="round"/>
</svg>
