<svg width="1167" height="338" viewBox="0 0 1167 338" fill="none" xmlns="http://www.w3.org/2000/svg">
<path opacity="0.64" d="M306 328H33C33 177.226 155.226 55 306 55V328Z" fill="#0C064B"/>
<path opacity="0.64" d="M-2.38664e-05 23L273 23C273 173.774 150.774 296 0 296L-2.38664e-05 23Z" fill="#0C064B"/>
<path d="M375.3 185C375.3 172.1 377.7 160.775 382.5 151.025C387.45 141.275 394.125 133.775 402.525 128.525C410.925 123.275 420.3 120.65 430.65 120.65C439.5 120.65 447.225 122.45 453.825 126.05C460.575 129.65 465.75 134.375 469.35 140.225V122.45H507.825V248H469.35V230.225C465.6 236.075 460.35 240.8 453.6 244.4C447 248 439.275 249.8 430.425 249.8C420.225 249.8 410.925 247.175 402.525 241.925C394.125 236.525 387.45 228.95 382.5 219.2C377.7 209.3 375.3 197.9 375.3 185ZM469.35 185.225C469.35 175.625 466.65 168.05 461.25 162.5C456 156.95 449.55 154.175 441.9 154.175C434.25 154.175 427.725 156.95 422.325 162.5C417.075 167.9 414.45 175.4 414.45 185C414.45 194.6 417.075 202.25 422.325 207.95C427.725 213.5 434.25 216.275 441.9 216.275C449.55 216.275 456 213.5 461.25 207.95C466.65 202.4 469.35 194.825 469.35 185.225ZM574.135 81.5V248H535.66V81.5H574.135ZM621.367 109.4C614.617 109.4 609.067 107.45 604.717 103.55C600.517 99.5 598.417 94.55 598.417 88.7C598.417 82.7 600.517 77.75 604.717 73.85C609.067 69.8 614.617 67.775 621.367 67.775C627.967 67.775 633.367 69.8 637.567 73.85C641.917 77.75 644.092 82.7 644.092 88.7C644.092 94.55 641.917 99.5 637.567 103.55C633.367 107.45 627.967 109.4 621.367 109.4ZM640.492 122.45V248H602.017V122.45H640.492ZM716.075 120.65C724.925 120.65 732.65 122.45 739.25 126.05C746 129.65 751.175 134.375 754.775 140.225V122.45H793.25V247.775C793.25 259.325 790.925 269.75 786.275 279.05C781.775 288.5 774.8 296 765.35 301.55C756.05 307.1 744.425 309.875 730.475 309.875C711.875 309.875 696.8 305.45 685.25 296.6C673.7 287.9 667.1 276.05 665.45 261.05H703.475C704.675 265.85 707.525 269.6 712.025 272.3C716.525 275.15 722.075 276.575 728.675 276.575C736.625 276.575 742.925 274.25 747.575 269.6C752.375 265.1 754.775 257.825 754.775 247.775V230C751.025 235.85 745.85 240.65 739.25 244.4C732.65 248 724.925 249.8 716.075 249.8C705.725 249.8 696.35 247.175 687.95 241.925C679.55 236.525 672.875 228.95 667.925 219.2C663.125 209.3 660.725 197.9 660.725 185C660.725 172.1 663.125 160.775 667.925 151.025C672.875 141.275 679.55 133.775 687.95 128.525C696.35 123.275 705.725 120.65 716.075 120.65ZM754.775 185.225C754.775 175.625 752.075 168.05 746.675 162.5C741.425 156.95 734.975 154.175 727.325 154.175C719.675 154.175 713.15 156.95 707.75 162.5C702.5 167.9 699.875 175.4 699.875 185C699.875 194.6 702.5 202.25 707.75 207.95C713.15 213.5 719.675 216.275 727.325 216.275C734.975 216.275 741.425 213.5 746.675 207.95C752.075 202.4 754.775 194.825 754.775 185.225ZM897.585 121.1C912.285 121.1 923.985 125.9 932.685 135.5C941.535 144.95 945.96 158 945.96 174.65V248H907.71V179.825C907.71 171.425 905.535 164.9 901.185 160.25C896.835 155.6 890.985 153.275 883.635 153.275C876.285 153.275 870.435 155.6 866.085 160.25C861.735 164.9 859.56 171.425 859.56 179.825V248H821.085V122.45H859.56V139.1C863.46 133.55 868.71 129.2 875.31 126.05C881.91 122.75 889.335 121.1 897.585 121.1Z" fill="#0C064B"/>
<path d="M990.696 249.8C983.946 249.8 978.396 247.85 974.046 243.95C969.846 239.9 967.746 234.95 967.746 229.1C967.746 223.1 969.846 218.075 974.046 214.025C978.396 209.975 983.946 207.95 990.696 207.95C997.296 207.95 1002.7 209.975 1006.9 214.025C1011.25 218.075 1013.42 223.1 1013.42 229.1C1013.42 234.95 1011.25 239.9 1006.9 243.95C1002.7 247.85 997.296 249.8 990.696 249.8Z" fill="#FF914D"/>
</svg>
